<svg width="36" height="35" viewBox="0 0 36 35" fill="none" xmlns="http://www.w3.org/2000/svg">
<g id="Group 3">
<path id="Ellipse 1" d="M35.7829 17.8175C35.7829 27.1099 27.9657 34.6429 18.3226 34.6429C8.67955 34.6429 0.862305 27.1099 0.862305 17.8175C0.862305 8.52505 8.67955 0.992064 18.3226 0.992064C27.9657 0.992064 35.7829 8.52505 35.7829 17.8175Z" fill="white"/>
<path id="Ellipse 1 (Stroke)" fill-rule="evenodd" clip-rule="evenodd" d="M18.3226 32.1032C26.6526 32.1032 33.2433 25.6194 33.2433 17.8175C33.2433 10.0155 26.6526 3.53175 18.3226 3.53175C9.99269 3.53175 3.40199 10.0155 3.40199 17.8175C3.40199 25.6194 9.99269 32.1032 18.3226 32.1032ZM18.3226 34.6429C27.9657 34.6429 35.7829 27.1099 35.7829 17.8175C35.7829 8.52505 27.9657 0.992064 18.3226 0.992064C8.67955 0.992064 0.862305 8.52505 0.862305 17.8175C0.862305 27.1099 8.67955 34.6429 18.3226 34.6429Z" fill="black"/>
<path id="Ellipse 3" d="M30.0687 17.8175C30.0687 24.3046 24.8098 29.5635 18.3227 29.5635C11.8355 29.5635 6.57666 24.3046 6.57666 17.8175C6.57666 11.3303 11.8355 6.07143 18.3227 6.07143C24.8098 6.07143 30.0687 11.3303 30.0687 17.8175Z" fill="white"/>
<path id="Ellipse 3 (Stroke)" fill-rule="evenodd" clip-rule="evenodd" d="M18.3227 27.0238C23.4072 27.0238 27.529 22.902 27.529 17.8175C27.529 12.7329 23.4072 8.61111 18.3227 8.61111C13.2382 8.61111 9.11634 12.7329 9.11634 17.8175C9.11634 22.902 13.2382 27.0238 18.3227 27.0238ZM18.3227 29.5635C24.8098 29.5635 30.0687 24.3046 30.0687 17.8175C30.0687 11.3303 24.8098 6.07143 18.3227 6.07143C11.8355 6.07143 6.57666 11.3303 6.57666 17.8175C6.57666 24.3046 11.8355 29.5635 18.3227 29.5635Z" fill="black"/>
</g>
</svg>
